<svg width="218" height="157" viewBox="0 0 218 157" fill="none" xmlns="http://www.w3.org/2000/svg">
<ellipse cx="109" cy="109" rx="109" ry="48" fill="url(#paint0_radial_224_329)"/>
<g clip-path="url(#clip0_224_329)">
<path d="M87.7329 40.1285C85.8788 48.9011 86.8596 58.2676 91.5386 66.8513C88.4685 75.8365 86.218 85.3885 87.5549 94.7921C88.8918 104.196 94.4307 113.444 103.194 117.011C110.312 119.909 118.538 118.728 125.612 115.722C134.456 111.966 142.343 105.049 145.43 95.9191C149.034 85.2806 145.766 73.6669 142.504 62.9171C140.076 54.9272 137.506 46.6742 132.034 40.3815C126.922 34.5535 119.764 30.9372 112.059 30.2896C104.45 29.6924 96.6308 32.1858 87.7329 40.1285Z" fill="white"/>
<mask id="mask0_224_329" style="mask-type:luminance" maskUnits="userSpaceOnUse" x="89" y="30" width="59" height="89">
<path d="M90.8096 40.1281C89.0495 48.9007 89.9799 58.2672 94.4171 66.8509C91.5049 75.8361 89.3787 85.3881 90.6416 94.7917C91.9046 104.195 97.158 113.444 105.468 117.01C112.216 119.908 120.012 118.728 126.724 115.721C135.121 111.966 142.585 105.049 145.534 95.9187C148.953 85.2802 145.87 73.6665 142.759 62.9167C140.458 54.9268 138.023 46.6738 132.834 40.3811C128.071 34.5979 121.121 30.8932 113.896 30.2892C106.671 29.6853 99.2372 32.1855 90.8096 40.1281Z" fill="white"/>
</mask>
<g mask="url(#mask0_224_329)">
<path d="M132.766 29.1961C129.817 27.2087 125.766 28.9835 123.24 31.504C120.714 34.0244 118.823 37.3006 115.77 39.1125C110.819 42.0547 103.593 40.6916 99.9826 45.2163C97.1275 48.7827 98.1721 54.0227 97.2954 58.5372C96.2273 63.9965 92.173 68.9969 93.0833 74.473C93.7551 78.5219 96.9864 81.5586 100.295 83.8969C103.604 86.2351 107.275 88.2157 109.7 91.4919C113.187 96.2157 113.472 102.846 117.073 107.485C121.403 113.059 129.837 114.173 136.108 111.099C142.379 108.025 146.615 101.567 148.536 94.7277C150.458 87.8884 150.27 80.6409 149.793 73.5553C149.275 65.8792 148.352 58.1593 145.829 50.9117C143.306 43.6642 140.938 34.706 132.766 29.1961Z" fill="url(#paint1_linear_224_329)"/>
<path d="M148.14 51.6234C147.062 48.0469 143.263 46.1405 139.743 45.8875C136.223 45.6344 132.689 46.5825 129.145 46.7107C124.507 46.8794 119.367 45.7592 115.578 48.6036C112.861 50.6281 111.578 54.6027 112.555 57.9802C113.533 61.3577 116.667 63.895 119.995 63.9928C122.159 64.0536 124.463 63.2134 126.411 64.2189C128.295 65.194 129.098 67.5188 130.26 69.3745C133.572 74.6617 141.157 76.2408 146.111 72.6811C151.066 69.1215 151.15 61.6006 148.14 51.6234Z" fill="url(#paint2_linear_224_329)"/>
<path d="M99.5022 71.031C98.7498 69.5666 99.3409 67.6906 100.349 66.4085C101.356 65.1263 102.723 64.2288 103.849 63.0647C105.327 61.5396 106.566 59.4511 108.588 59.0361C109.33 58.9084 110.094 59.0186 110.77 59.3511C111.447 59.6835 112.002 60.2214 112.357 60.8884C112.71 61.5866 112.853 62.3726 112.77 63.1511C112.688 63.9296 112.382 64.6673 111.89 65.2748C111.245 66.0306 110.281 66.5535 109.989 67.5253C109.697 68.497 110.164 69.4519 110.365 70.4135C110.95 73.1634 109.099 76.2237 106.499 76.8243C103.899 77.4249 101.588 75.1204 99.5022 71.031Z" fill="#D99E66"/>
<path d="M99.5022 71.031C98.7498 69.5666 99.3409 67.6906 100.349 66.4085C101.356 65.1263 102.723 64.2288 103.849 63.0647C105.327 61.5396 106.566 59.4511 108.588 59.0361C109.33 58.9084 110.094 59.0186 110.77 59.3511C111.447 59.6835 112.002 60.2214 112.357 60.8884C112.71 61.5866 112.853 62.3726 112.77 63.1511C112.688 63.9296 112.382 64.6673 111.89 65.2748C111.245 66.0306 110.281 66.5535 109.989 67.5253C109.697 68.497 110.164 69.4519 110.365 70.4135C110.95 73.1634 109.099 76.2237 106.499 76.8243C103.899 77.4249 101.588 75.1204 99.5022 71.031Z" fill="url(#paint3_linear_224_329)"/>
<path d="M150.696 87.6424C144.949 83.8263 139.051 79.9427 132.42 78.4345C130.029 77.8913 127.536 77.6517 125.313 76.5687C123.764 75.8129 122.337 74.6454 120.644 74.4329C118.766 74.2 116.818 75.3202 115.924 77.0815C115.491 77.9814 115.297 78.9785 115.362 79.976C115.426 80.9734 115.746 81.9372 116.29 82.7736C118.413 85.9385 123.096 86.1814 125.195 89.3598C126.639 91.5429 126.438 94.4783 127.298 96.9819C128.305 99.914 130.781 102.117 133.569 103.119C136.357 104.121 139.417 104.01 142.282 103.295C145.147 102.58 147.861 101.27 149.87 99.0469C151.879 96.8233 153.044 93.6348 150.696 87.6424Z" fill="#E0AA7E"/>
<path d="M150.696 87.6424C144.949 83.8263 139.051 79.9427 132.42 78.4345C130.029 77.8913 127.536 77.6517 125.313 76.5687C123.764 75.8129 122.337 74.6454 120.644 74.4329C118.766 74.2 116.818 75.3202 115.924 77.0815C115.491 77.9814 115.297 78.9785 115.362 79.976C115.426 80.9734 115.746 81.9372 116.29 82.7736C118.413 85.9385 123.096 86.1814 125.195 89.3598C126.639 91.5429 126.438 94.4783 127.298 96.9819C128.305 99.914 130.781 102.117 133.569 103.119C136.357 104.121 139.417 104.01 142.282 103.295C145.147 102.58 147.861 101.27 149.87 99.0469C151.879 96.8233 153.044 93.6348 150.696 87.6424Z" fill="url(#paint4_linear_224_329)"/>
</g>
<path d="M109.382 13.4968L118.935 2.84475C119.533 2.16993 120.419 1.4445 121.219 1.85277C121.797 2.14969 121.958 2.89199 122.048 3.53982C122.963 10.2259 123.096 16.9964 122.445 23.7135C118.824 19.7152 114.689 16.196 109.382 13.4968Z" fill="url(#paint5_linear_224_329)"/>
<path d="M110.473 13.6384C112.488 11.5262 115.148 8.88771 117.483 6.18506C117.673 5.96027 117.92 5.7916 118.198 5.6971C118.476 5.6026 118.775 5.58582 119.062 5.64858C119.851 5.86452 120.049 6.88012 120.103 7.70003C120.375 12.0863 120.65 16.5334 119.908 20.859C117.543 17.9067 114.493 15.4942 110.473 13.6384Z" fill="url(#paint6_linear_224_329)"/>
<path d="M96.9298 12.0727L87.6725 1.15748C87.0914 0.482664 86.2247 -0.283256 85.4152 0.104765C84.8308 0.384814 84.6494 1.11699 84.5419 1.76819C83.443 8.42911 83.1239 15.1963 83.5913 21.9318C87.3198 18.0111 91.5688 14.5965 96.9298 12.0727Z" fill="url(#paint7_linear_224_329)"/>
<path d="M94.011 12.4064C92.1166 10.1896 89.5571 7.26089 87.3737 4.4334C87.0177 3.97452 86.1511 2.90156 85.5868 3.00616C84.962 3.12088 85.0728 5.53673 85.0023 6.35326C84.5858 11.0534 84.2096 14.2621 84.3036 18.9251C86.8262 16.0909 89.8963 14.0394 94.011 12.4064Z" fill="url(#paint8_linear_224_329)"/>
<path d="M97.3164 11.2422C90.3801 12.5311 84.821 14.3059 81.761 18.483C78.4525 23.0043 76.6957 28.8313 79.4098 34.24C88.9526 53.226 113.735 43.9473 117.594 41.663C122.546 38.7309 126.906 26.5808 119.193 18.6314C114.759 14.0562 104.995 9.81494 97.3164 11.2422Z" fill="#333333"/>
<path d="M97.3164 11.2422C90.3801 12.5311 84.821 14.3059 81.761 18.483C78.4525 23.0043 76.6957 28.8313 79.4098 34.24C88.9526 53.226 113.735 43.9473 117.594 41.663C122.546 38.7309 126.906 26.5808 119.193 18.6314C114.759 14.0562 104.995 9.81494 97.3164 11.2422Z" fill="url(#paint9_linear_224_329)"/>
<mask id="mask1_224_329" style="mask-type:luminance" maskUnits="userSpaceOnUse" x="78" y="10" width="46" height="36">
<path d="M97.3164 11.2422C90.3801 12.5311 84.821 14.3059 81.761 18.483C78.4525 23.0043 76.6957 28.8313 79.4098 34.24C88.9526 53.226 113.735 43.9473 117.594 41.663C122.546 38.7309 126.906 26.5808 119.193 18.6314C114.759 14.0562 104.995 9.81494 97.3164 11.2422Z" fill="white"/>
</mask>
<g mask="url(#mask1_224_329)">
<path d="M89.7718 7.52455C90.3219 7.78394 90.8064 8.1649 91.1892 8.63894C91.5721 9.11298 91.8432 9.66782 91.9825 10.262C92.1217 10.8561 92.1254 11.4742 91.9933 12.07C91.8612 12.6658 91.5966 13.2239 91.2195 13.7025C90.0573 15.1702 87.9613 15.727 87.004 17.3533C86.3759 18.4127 86.3658 19.7152 86.1576 20.9264C85.7108 23.5211 84.2765 25.8796 82.409 27.732C80.5414 29.5844 78.2606 30.961 75.8926 32.0879C74.8849 32.5704 73.7932 33.0158 72.6848 32.8809C71.2639 32.7088 70.095 31.5683 69.5374 30.2457C68.9798 28.923 68.9429 27.4317 69.047 25.9977C69.4198 20.8623 71.5729 15.8046 75.3081 12.2786C79.0433 8.75272 84.8576 5.2133 89.7718 7.52455Z" fill="#D99E66"/>
<path d="M89.7718 7.52455C90.3219 7.78394 90.8064 8.1649 91.1892 8.63894C91.5721 9.11298 91.8432 9.66782 91.9825 10.262C92.1217 10.8561 92.1254 11.4742 91.9933 12.07C91.8612 12.6658 91.5966 13.2239 91.2195 13.7025C90.0573 15.1702 87.9613 15.727 87.004 17.3533C86.3759 18.4127 86.3658 19.7152 86.1576 20.9264C85.7108 23.5211 84.2765 25.8796 82.409 27.732C80.5414 29.5844 78.2606 30.961 75.8926 32.0879C74.8849 32.5704 73.7932 33.0158 72.6848 32.8809C71.2639 32.7088 70.095 31.5683 69.5374 30.2457C68.9798 28.923 68.9429 27.4317 69.047 25.9977C69.4198 20.8623 71.5729 15.8046 75.3081 12.2786C79.0433 8.75272 84.8576 5.2133 89.7718 7.52455Z" fill="url(#paint10_linear_224_329)"/>
<path d="M91.8716 36.2718C92.0512 35.6886 92.3599 35.1538 92.7744 34.7073C93.1889 34.2609 93.6985 33.9144 94.2651 33.6937C94.8318 33.473 95.4408 33.3839 96.0465 33.4331C96.6523 33.4822 97.2391 33.6683 97.7632 33.9774C99.3721 34.9289 100.225 36.9331 101.945 37.6585C103.077 38.1376 104.36 37.9656 105.586 37.9959C108.21 38.0803 110.732 39.1769 112.818 40.7762C114.904 42.3755 116.58 44.4539 118.021 46.6539C118.636 47.5885 119.227 48.6108 119.247 49.731C119.274 51.1718 118.317 52.4944 117.087 53.2333C115.858 53.9723 114.4 54.2118 112.969 54.3097C107.854 54.6471 102.556 53.2131 98.5727 49.9908C94.589 46.7686 90.2794 41.5016 91.8716 36.2718Z" fill="white"/>
<path d="M103.715 8.60396C104.497 10.318 105.324 20.005 108.343 18.6959C112.374 7.91902 116.099 14.8562 115.061 23.6828C116.106 28.3424 115.619 27.6845 117.077 29.4187C118.007 30.5187 118.447 33.0391 120.798 31.315C123.15 29.5908 128.652 29.9316 129.632 26.5238C130.613 23.1159 129.176 18.6891 126.304 15.0519C123.432 11.4146 119.287 8.54997 115.024 6.83256C110.762 5.11515 102.932 6.88992 103.715 8.60396Z" fill="#E8B185"/>
<path d="M103.715 8.60396C104.497 10.318 105.324 20.005 108.343 18.6959C112.374 7.91902 116.099 14.8562 115.061 23.6828C116.106 28.3424 115.619 27.6845 117.077 29.4187C118.007 30.5187 118.447 33.0391 120.798 31.315C123.15 29.5908 128.652 29.9316 129.632 26.5238C130.613 23.1159 129.176 18.6891 126.304 15.0519C123.432 11.4146 119.287 8.54997 115.024 6.83256C110.762 5.11515 102.932 6.88992 103.715 8.60396Z" fill="url(#paint11_linear_224_329)"/>
</g>
<path d="M123.392 33.582C119.052 47.4158 95.741 47.3078 87.2529 42.8743" stroke="#010101" stroke-width="0.409146" stroke-linecap="round" stroke-linejoin="round"/>
<path d="M91.4648 66.3112C92.0896 64.5905 92.7121 62.8685 93.3324 61.1455" stroke="#010101" stroke-width="0.409146" stroke-linecap="round" stroke-linejoin="round"/>
<path d="M92.3511 25.0929C90.8261 28.1295 93.8089 31.9085 96.5599 32.7048C99.0825 33.4336 102.737 33.2919 104.907 31.8107C107.077 30.3294 108.222 27.2422 107.02 24.9005C106.267 23.4395 104.762 22.4847 103.18 22.0629C101.598 21.6412 99.9357 21.7019 98.3066 21.8369C97.104 21.9381 95.8713 22.0865 94.8032 22.6466C93.7683 23.2077 92.9168 24.0572 92.3511 25.0929Z" fill="url(#paint12_linear_224_329)"/>
<path d="M98.0619 27.5566C97.1717 29.5372 98.9419 32.0071 100.568 32.5334C102.059 33.0159 104.215 32.9316 105.495 31.9699C106.775 31.0083 107.44 28.9974 106.725 27.4655C106.496 27.0132 106.175 26.6141 105.784 26.2939C105.392 25.9737 104.938 25.7395 104.451 25.6064C103.509 25.3733 102.533 25.3195 101.572 25.4478C100.853 25.4723 100.148 25.6543 99.5062 25.9809C98.8838 26.3555 98.3823 26.9027 98.0619 27.5566Z" fill="#D99E66"/>
<path d="M98.0619 27.5566C97.1717 29.5372 98.9419 32.0071 100.568 32.5334C102.059 33.0159 104.215 32.9316 105.495 31.9699C106.775 31.0083 107.44 28.9974 106.725 27.4655C106.496 27.0132 106.175 26.6141 105.784 26.2939C105.392 25.9737 104.938 25.7395 104.451 25.6064C103.509 25.3733 102.533 25.3195 101.572 25.4478C100.853 25.4723 100.148 25.6543 99.5062 25.9809C98.8838 26.3555 98.3823 26.9027 98.0619 27.5566Z" fill="url(#paint13_linear_224_329)"/>
<path d="M99.4191 26.5576C99.5098 26.6588 99.3788 27.8364 99.4191 28.0793" stroke="url(#paint14_linear_224_329)" stroke-width="0.409146" stroke-linecap="round" stroke-linejoin="round"/>
<path d="M102.673 30.2014C101.639 29.3039 99.4049 28.0791 99.4049 28.0791C98.2033 28.6464 97.0753 29.3591 96.0459 30.2014" stroke="url(#paint15_linear_224_329)" stroke-width="0.409146" stroke-linecap="round" stroke-linejoin="round"/>
<path d="M98.9011 26.6213C98.9784 26.7212 99.0895 26.789 99.2133 26.8121C99.3372 26.8351 99.4651 26.8116 99.5729 26.7461C100.245 26.3581 101.142 25.4775 101.326 24.5462C101.405 24.2776 101.382 23.9893 101.262 23.7364C101.165 23.6031 101.039 23.4937 100.894 23.4165C100.748 23.3394 100.587 23.2965 100.423 23.291C100.087 23.2607 99.7711 23.3147 99.4452 23.3113C98.8641 23.3113 98.1655 23.1493 97.796 23.5542C97.7045 23.6706 97.643 23.8079 97.6173 23.9539C97.5915 24.0999 97.6021 24.2501 97.6482 24.391C97.7614 24.6745 97.9009 24.9468 98.0647 25.2042C98.2657 25.7187 98.5481 26.1973 98.9011 26.6213Z" fill="url(#paint16_linear_224_329)"/>
<path d="M98.7071 26.2746C98.865 26.3792 98.8348 25.6335 98.8247 25.3737C98.8586 25.111 98.8426 24.8443 98.7777 24.5875C98.7492 24.4981 98.6941 24.4197 98.6198 24.3627C98.5455 24.3057 98.4557 24.273 98.3623 24.269C98.2689 24.2649 98.1766 24.2898 98.0977 24.3401C98.0188 24.3904 97.9572 24.4638 97.9211 24.5504C97.8951 24.6023 97.8879 24.6617 97.9008 24.7184C97.9136 24.7751 97.9458 24.8254 97.9917 24.8608C98.0757 24.9081 98.1899 24.8608 98.2772 24.9182C98.3645 24.9756 98.4384 25.2151 98.4687 25.3366C98.5227 25.6552 98.6025 25.9689 98.7071 26.2746Z" fill="#3A3A3A"/>
<path d="M100.524 25.0427C100.687 25.0282 100.838 24.9523 100.947 24.8301C100.998 24.7677 101.028 24.691 101.034 24.6106C101.039 24.5302 101.02 24.45 100.978 24.3813C100.912 24.305 100.822 24.2534 100.723 24.235C100.624 24.2166 100.522 24.2325 100.433 24.2801C100.262 24.3808 100.127 24.5347 100.05 24.7187C99.8308 25.1731 99.749 25.6824 99.8154 26.1831C99.8154 26.2472 99.8456 26.3282 99.9128 26.3451C99.9388 26.3488 99.9654 26.3439 99.9884 26.3311C100.011 26.3184 100.03 26.2984 100.04 26.2742C100.059 26.2246 100.067 26.1718 100.064 26.119C100.086 25.717 100.249 25.3359 100.524 25.0427Z" fill="#3A3A3A"/>
<path d="M108.102 27.4816C109.68 27.1441 111.272 26.8371 112.865 26.5672C114.457 26.2972 116.062 26.0712 117.665 25.8519C119.267 25.6325 120.879 25.4706 122.488 25.3289L124.906 25.1366C125.716 25.0927 126.522 25.0387 127.332 25.0117L122.515 25.5853C120.913 25.781 119.307 25.9666 117.708 26.1859C116.109 26.4052 114.507 26.6043 112.905 26.8202L108.102 27.4816Z" fill="#DBDADA"/>
<path d="M108.713 29.4056C109.862 29.3246 111.017 29.2976 112.173 29.2942C113.328 29.2909 114.48 29.3178 115.632 29.3685C116.784 29.4191 117.937 29.5034 119.085 29.6215L120.805 29.8105C121.38 29.8914 121.951 29.9623 122.518 30.0601L115.616 29.6924L108.713 29.4056Z" fill="#DBDADA"/>
<path d="M108.643 31.4463C109.946 31.6319 111.239 31.8546 112.536 32.0806C113.832 32.3067 115.119 32.5631 116.412 32.8027C117.705 33.0422 118.988 33.3223 120.271 33.6023L122.199 34.0275C122.838 34.1827 123.479 34.3244 124.117 34.4897C123.466 34.3986 122.817 34.2907 122.166 34.1894L120.221 33.852C118.928 33.626 117.638 33.3695 116.345 33.13C115.051 32.8904 113.768 32.6104 112.485 32.3303C111.202 32.0503 109.902 31.7668 108.643 31.4463Z" fill="#DBDADA"/>
<path d="M89.6641 27.3812L85.1631 25.5727C83.6617 24.9755 82.1635 24.3648 80.6554 23.7912C79.1472 23.2176 77.6323 22.6204 76.1342 22.04L71.5996 20.3125C72.3789 20.5352 73.1481 20.7849 73.9207 21.0244L76.2215 21.7971C77.7499 22.3268 79.2648 22.8971 80.7763 23.4842C82.2878 24.0712 83.7792 24.6921 85.2605 25.3433C86.7418 25.9945 88.2164 26.6558 89.6641 27.3812Z" fill="#DBDADA"/>
<path d="M88.6095 29.1014L81.8378 27.7112L75.0527 26.3818C75.6305 26.4257 76.2015 26.4932 76.7759 26.5539L78.4923 26.7867C79.6344 26.9521 80.7697 27.1579 81.9017 27.3806C83.0336 27.6033 84.1622 27.8597 85.2808 28.1499C86.3993 28.44 87.5111 28.7403 88.6095 29.1014Z" fill="#DBDADA"/>
<path d="M88.1999 31.0994C86.8832 31.0994 85.5699 31.069 84.2565 31.0285C82.9432 30.988 81.6298 30.9172 80.3165 30.8666C79.0031 30.816 77.6931 30.7181 76.3831 30.6236L74.4148 30.4785C73.7598 30.4144 73.1048 30.3672 72.4531 30.293C73.1249 30.293 73.7665 30.293 74.4248 30.3132L76.3966 30.3672C77.7099 30.4077 79.0199 30.4752 80.3333 30.5292C81.6466 30.5831 82.9566 30.6742 84.27 30.7687C85.5833 30.8632 86.89 30.9644 88.1999 31.0994Z" fill="#DBDADA"/>
<path d="M91.7467 21.1317C91.8529 21.4679 91.9183 21.8157 91.9415 22.1676C91.9785 23.281 91.4209 24.192 90.6953 24.2291C89.9698 24.2662 89.3518 23.3687 89.3114 22.2553C89.2996 21.9251 89.3439 21.5954 89.4424 21.2802C89.9732 19.5898 91.216 19.5898 91.7467 21.1317Z" fill="url(#paint17_linear_224_329)"/>
<path d="M108.179 21.1317C108.073 21.4679 108.007 21.8157 107.984 22.1676C107.947 23.281 108.505 24.192 109.23 24.2291C109.956 24.2662 110.574 23.3687 110.614 22.2553C110.626 21.9251 110.582 21.5954 110.483 21.2802C109.953 19.5898 108.71 19.5898 108.179 21.1317Z" fill="url(#paint18_linear_224_329)"/>
<path d="M138.09 102.357C132.256 106.024 125.719 108.717 118.874 109.442C112.028 110.168 104.863 108.767 99.1498 104.924C93.5302 101.132 89.4591 95.1125 83.3055 92.2783C80.8367 91.1412 77.5483 90.733 75.7109 92.7405C74.0314 94.5625 74.411 97.444 75.2306 99.7789C77.9681 107.573 84.5215 113.657 92.0724 116.943C99.6234 120.229 108.085 120.928 116.28 120.216C121.262 119.781 126.253 118.826 130.791 116.72C135.329 114.615 135.998 113.451 139.914 108.572C140.771 107.502 142.652 101.756 142.652 101.756C142.652 101.756 140.687 100.724 138.09 102.357Z" fill="#333333"/>
<path d="M138.09 102.357C132.256 106.024 125.719 108.717 118.874 109.442C112.028 110.168 104.863 108.767 99.1498 104.924C93.5302 101.132 89.4591 95.1125 83.3055 92.2783C80.8367 91.1412 77.5483 90.733 75.7109 92.7405C74.0314 94.5625 74.411 97.444 75.2306 99.7789C77.9681 107.573 84.5215 113.657 92.0724 116.943C99.6234 120.229 108.085 120.928 116.28 120.216C121.262 119.781 126.253 118.826 130.791 116.72C135.329 114.615 135.998 113.451 139.914 108.572C140.771 107.502 142.652 101.756 142.652 101.756C142.652 101.756 140.687 100.724 138.09 102.357Z" fill="url(#paint19_linear_224_329)"/>
<mask id="mask2_224_329" style="mask-type:luminance" maskUnits="userSpaceOnUse" x="74" y="91" width="69" height="30">
<path d="M138.09 102.357C132.256 106.024 125.719 108.717 118.874 109.442C112.028 110.168 104.863 108.767 99.1498 104.924C93.5302 101.132 89.4591 95.1125 83.3055 92.2783C80.8367 91.1412 77.5483 90.733 75.7109 92.7405C74.0314 94.5625 74.411 97.444 75.2306 99.7789C77.9681 107.573 84.5215 113.657 92.0724 116.943C99.6234 120.229 108.085 120.928 116.28 120.216C121.262 119.781 126.253 118.826 130.791 116.72C135.329 114.615 135.998 113.451 139.914 108.572C140.771 107.502 142.652 101.756 142.652 101.756C142.652 101.756 140.687 100.724 138.09 102.357Z" fill="white"/>
</mask>
<g mask="url(#mask2_224_329)">
<path d="M84.793 114.148C85.8007 114.931 87.3827 114.486 88.3199 113.649C89.257 112.812 89.8012 111.658 90.6476 110.741C91.4941 109.823 92.9015 109.124 94.0906 109.627C95.0748 110.046 95.5417 111.122 96.4654 111.652C98.4438 112.758 101.591 110.919 103.096 112.546C104.087 113.619 103.408 115.35 104.087 116.618C105.373 119.021 110.197 117.995 111.362 120.451C111.893 121.568 111.272 122.938 110.234 123.694C109.196 124.45 107.842 124.706 106.539 124.868C99.1089 125.684 91.175 123.009 84.793 114.148Z" fill="#EAA66C"/>
<path d="M84.793 114.148C85.8007 114.931 87.3827 114.486 88.3199 113.649C89.257 112.812 89.8012 111.658 90.6476 110.741C91.4941 109.823 92.9015 109.124 94.0906 109.627C95.0748 110.046 95.5417 111.122 96.4654 111.652C98.4438 112.758 101.591 110.919 103.096 112.546C104.087 113.619 103.408 115.35 104.087 116.618C105.373 119.021 110.197 117.995 111.362 120.451C111.893 121.568 111.272 122.938 110.234 123.694C109.196 124.45 107.842 124.706 106.539 124.868C99.1089 125.684 91.175 123.009 84.793 114.148Z" fill="url(#paint20_linear_224_329)"/>
<path d="M85.0553 91.9338C86.3585 92.2712 87.1949 93.6546 87.3259 95.0076C87.4569 96.3606 87.0135 97.7069 86.5063 98.9519C85.9991 100.197 85.4147 101.459 85.2299 102.805C85.0452 104.151 85.2669 105.65 84.6757 106.905C83.9636 108.403 82.1531 109.186 80.5173 108.96C78.8815 108.733 77.4506 107.637 76.5134 106.26C75.5763 104.884 75.0758 103.271 74.7365 101.644C74.095 98.5707 74.0144 95.2033 75.546 92.4669C77.0777 89.7306 79.3417 90.3683 85.0553 91.9338Z" fill="#F3B687"/>
<path d="M85.0553 91.9338C86.3585 92.2712 87.1949 93.6546 87.3259 95.0076C87.4569 96.3606 87.0135 97.7069 86.5063 98.9519C85.9991 100.197 85.4147 101.459 85.2299 102.805C85.0452 104.151 85.2669 105.65 84.6757 106.905C83.9636 108.403 82.1531 109.186 80.5173 108.96C78.8815 108.733 77.4506 107.637 76.5134 106.26C75.5763 104.884 75.0758 103.271 74.7365 101.644C74.095 98.5707 74.0144 95.2033 75.546 92.4669C77.0777 89.7306 79.3417 90.3683 85.0553 91.9338Z" fill="url(#paint21_linear_224_329)"/>
</g>
<path d="M130.546 105.687C121.5 110.748 109.855 110.812 100.769 105.812C95.9555 103.163 91.9483 99.2827 88.0049 95.4531" stroke="#010101" stroke-width="0.409146" stroke-linecap="round" stroke-linejoin="round"/>
<path d="M123.334 34.3076C118.998 48.1414 95.6834 48.0301 87.1953 43.5965" stroke="#BD232C" stroke-width="1.63658" stroke-linecap="round" stroke-linejoin="round"/>
<path d="M93.5 54.1851C94.9896 54.1851 96.1972 52.4116 96.1972 50.2239C96.1972 48.0362 94.9896 46.2627 93.5 46.2627C92.0103 46.2627 90.8027 48.0362 90.8027 50.2239C90.8027 52.4116 92.0103 54.1851 93.5 54.1851Z" fill="#999999"/>
<path d="M93.5004 52.8487C94.5318 52.8487 95.368 51.622 95.368 50.1089C95.368 48.5958 94.5318 47.3691 93.5004 47.3691C92.469 47.3691 91.6328 48.5958 91.6328 50.1089C91.6328 51.622 92.469 52.8487 93.5004 52.8487Z" fill="#B7B7B7"/>
<ellipse cx="91.5885" cy="21.0083" rx="2.62658" ry="4.20168" fill="white"/>
<ellipse cx="91.5886" cy="20.4835" rx="1.57595" ry="2.62605" fill="url(#paint22_radial_224_329)"/>
<ellipse cx="90.538" cy="18.9078" rx="0.525316" ry="1.05042" fill="white"/>
<ellipse cx="108.399" cy="22.0591" rx="2.62658" ry="4.20168" fill="white"/>
<ellipse cx="108.399" cy="21.5343" rx="1.57595" ry="2.62605" fill="url(#paint23_radial_224_329)"/>
<ellipse cx="107.349" cy="19.9586" rx="0.525316" ry="1.05042" fill="white"/>
</g>
<defs>
<radialGradient id="paint0_radial_224_329" cx="0" cy="0" r="1" gradientUnits="userSpaceOnUse" gradientTransform="translate(109 109) rotate(90) scale(48 109)">
<stop stop-color="#3C3C3C"/>
<stop offset="1" stop-opacity="0"/>
</radialGradient>
<linearGradient id="paint1_linear_224_329" x1="121.531" y1="28.3418" x2="121.531" y2="112.778" gradientUnits="userSpaceOnUse">
<stop stop-color="#282828"/>
<stop offset="1" stop-color="#010101"/>
</linearGradient>
<linearGradient id="paint2_linear_224_329" x1="128.36" y1="23.6343" x2="140.963" y2="78.7825" gradientUnits="userSpaceOnUse">
<stop stop-color="#D99E66"/>
<stop offset="1" stop-color="#3F2003"/>
</linearGradient>
<linearGradient id="paint3_linear_224_329" x1="104.769" y1="52.3373" x2="103.475" y2="84.8019" gradientUnits="userSpaceOnUse">
<stop stop-color="#D99E66"/>
<stop offset="1" stop-color="#3F2003"/>
</linearGradient>
<linearGradient id="paint4_linear_224_329" x1="132.037" y1="57.2481" x2="121.476" y2="109.445" gradientUnits="userSpaceOnUse">
<stop stop-color="#D99E66"/>
<stop offset="1" stop-color="#3F2003"/>
</linearGradient>
<linearGradient id="paint5_linear_224_329" x1="116.116" y1="1.73437" x2="116.116" y2="23.7135" gradientUnits="userSpaceOnUse">
<stop stop-color="#282828"/>
<stop offset="1" stop-color="#010101"/>
</linearGradient>
<linearGradient id="paint6_linear_224_329" x1="115.43" y1="5.61133" x2="115.43" y2="20.859" gradientUnits="userSpaceOnUse">
<stop stop-color="#F6B2BD"/>
<stop offset="1" stop-color="#C40F2D" stop-opacity="0"/>
</linearGradient>
<linearGradient id="paint7_linear_224_329" x1="90.1563" y1="0" x2="90.1563" y2="21.9318" gradientUnits="userSpaceOnUse">
<stop stop-color="#282828"/>
<stop offset="1" stop-color="#010101"/>
</linearGradient>
<linearGradient id="paint8_linear_224_329" x1="89.1501" y1="2.99902" x2="89.1501" y2="18.9251" gradientUnits="userSpaceOnUse">
<stop stop-color="#F6B2BD"/>
<stop offset="1" stop-color="#C40F2D" stop-opacity="0"/>
</linearGradient>
<linearGradient id="paint9_linear_224_329" x1="100.519" y1="11.5541" x2="99.9942" y2="49.8944" gradientUnits="userSpaceOnUse">
<stop stop-color="#282828"/>
<stop offset="1" stop-color="#010101"/>
</linearGradient>
<linearGradient id="paint10_linear_224_329" x1="78.4989" y1="-2.89457" x2="79.8718" y2="47.0859" gradientUnits="userSpaceOnUse">
<stop stop-color="#D99E66"/>
<stop offset="1" stop-color="#3F2003"/>
</linearGradient>
<linearGradient id="paint11_linear_224_329" x1="113.652" y1="3.15107" x2="134.684" y2="40.7684" gradientUnits="userSpaceOnUse">
<stop stop-color="#D99E66"/>
<stop offset="1" stop-color="#3F2003"/>
</linearGradient>
<linearGradient id="paint12_linear_224_329" x1="97.4995" y1="10.9998" x2="99.7221" y2="33.1328" gradientUnits="userSpaceOnUse">
<stop stop-color="#2E2E2E"/>
<stop offset="1" stop-color="#232323"/>
</linearGradient>
<linearGradient id="paint13_linear_224_329" x1="101.57" y1="25.2104" x2="107.036" y2="37.1484" gradientUnits="userSpaceOnUse">
<stop stop-color="#D99E66"/>
<stop offset="1" stop-color="#3F2003"/>
</linearGradient>
<linearGradient id="paint14_linear_224_329" x1="99.4315" y1="26.5576" x2="99.4315" y2="28.0793" gradientUnits="userSpaceOnUse">
<stop stop-color="white"/>
<stop offset="1" stop-color="#C8C8C8"/>
</linearGradient>
<linearGradient id="paint15_linear_224_329" x1="99.3595" y1="28.0791" x2="99.3595" y2="30.2014" gradientUnits="userSpaceOnUse">
<stop stop-color="white"/>
<stop offset="1" stop-color="#C8C8C8"/>
</linearGradient>
<linearGradient id="paint16_linear_224_329" x1="98.9995" y1="19.9998" x2="99.9995" y2="25.4998" gradientUnits="userSpaceOnUse">
<stop stop-color="#494949"/>
<stop offset="1" stop-color="#0D0D0D"/>
</linearGradient>
<linearGradient id="paint17_linear_224_329" x1="90.6264" y1="19.9932" x2="90.6264" y2="24.2302" gradientUnits="userSpaceOnUse">
<stop stop-color="#B5D83E"/>
<stop offset="1" stop-color="#4C5C15"/>
</linearGradient>
<linearGradient id="paint18_linear_224_329" x1="109.299" y1="19.9932" x2="109.299" y2="24.2302" gradientUnits="userSpaceOnUse">
<stop stop-color="#B5D83E"/>
<stop offset="1" stop-color="#4C5C15"/>
</linearGradient>
<linearGradient id="paint19_linear_224_329" x1="108.592" y1="91.3301" x2="108.592" y2="120.469" gradientUnits="userSpaceOnUse">
<stop stop-color="#282828"/>
<stop offset="1" stop-color="#010101"/>
</linearGradient>
<linearGradient id="paint20_linear_224_329" x1="95.8023" y1="103.696" x2="98.8844" y2="127.824" gradientUnits="userSpaceOnUse">
<stop stop-color="#D99E66"/>
<stop offset="1" stop-color="#3F2003"/>
</linearGradient>
<linearGradient id="paint21_linear_224_329" x1="79.6696" y1="83.7631" x2="87.8881" y2="110.25" gradientUnits="userSpaceOnUse">
<stop stop-color="#D99E66"/>
<stop offset="1" stop-color="#3F2003"/>
</linearGradient>
<radialGradient id="paint22_radial_224_329" cx="0" cy="0" r="1" gradientUnits="userSpaceOnUse" gradientTransform="translate(91.5886 17.8574) rotate(90) scale(5.2521 3.1519)">
<stop offset="0.0260387" stop-color="#6D8A0A"/>
<stop offset="1"/>
</radialGradient>
<radialGradient id="paint23_radial_224_329" cx="0" cy="0" r="1" gradientUnits="userSpaceOnUse" gradientTransform="translate(108.399 18.9082) rotate(90) scale(5.2521 3.1519)">
<stop offset="0.0260387" stop-color="#6D8A0A"/>
<stop offset="1"/>
</radialGradient>
<clipPath id="clip0_224_329">
<rect width="83" height="125" fill="white" transform="translate(69)"/>
</clipPath>
</defs>
</svg>
