<svg width="49" height="42" viewBox="0 0 49 42" fill="none" xmlns="http://www.w3.org/2000/svg">
<path d="M0 31.5891V10.5439H8.05636C9.5772 10.5439 10.8411 10.7837 11.8482 11.2633C12.8621 11.736 13.6191 12.3833 14.1192 13.2054C14.6261 14.0275 14.8796 14.9592 14.8796 16.0005C14.8796 16.8568 14.7152 17.5898 14.3864 18.1995C14.0575 18.8024 13.6157 19.2922 13.0608 19.669C12.5058 20.0458 11.8859 20.3164 11.2008 20.4808V20.6863C11.9475 20.7274 12.6634 20.9569 13.3485 21.3748C14.0404 21.7859 14.6056 22.3682 15.044 23.1217C15.4825 23.8753 15.7017 24.7864 15.7017 25.8551C15.7017 26.9444 15.4379 27.924 14.9104 28.7941C14.3829 29.6572 13.5883 30.3389 12.5264 30.839C11.4646 31.3391 10.1287 31.5891 8.51877 31.5891H0ZM3.81238 28.4036H7.91249C9.29632 28.4036 10.2931 28.1398 10.9028 27.6123C11.5194 27.078 11.8276 26.3929 11.8276 25.5571C11.8276 24.9337 11.6735 24.372 11.3652 23.8719C11.0569 23.3649 10.6185 22.9676 10.0499 22.6799C9.48129 22.3853 8.80308 22.238 8.01525 22.238H3.81238V28.4036ZM3.81238 19.4943H7.58366C8.24132 19.4943 8.8339 19.3744 9.3614 19.1347C9.8889 18.888 10.3034 18.5421 10.6048 18.0968C10.9131 17.6446 11.0672 17.1103 11.0672 16.4937C11.0672 15.6785 10.7795 15.0071 10.204 14.4796C9.63543 13.9521 8.78938 13.6884 7.66587 13.6884H3.81238V19.4943Z" fill="#D94766"/>
<path d="M18.8687 31.5891V10.5439H32.3507V13.7398H22.681V19.4532H31.4259V22.649H22.681V31.5891H18.8687Z" fill="#D94766"/>
<path d="M35.5181 31.5891V10.5439H49.0001V13.7398H39.3304V19.4532H48.0753V22.649H39.3304V31.5891H35.5181Z" fill="#D94766"/>
</svg>
