<svg width="32" height="33" viewBox="0 0 32 33" fill="none" xmlns="http://www.w3.org/2000/svg">
<g id="logo-javascript 1" clip-path="url(#clip0_224_187)">
<path id="Vector" d="M0 0.250977H32V32.251H0V0.250977Z" fill="#D94766"/>
<path id="Vector_2" d="M29.381 24.6189C29.1468 23.1588 28.1947 21.933 25.3749 20.7893C24.3954 20.3391 23.3034 20.0167 22.9779 19.2744C22.8624 18.8425 22.8471 18.5992 22.9201 18.3376C23.13 17.4889 24.143 17.2242 24.946 17.4676C25.4631 17.641 25.9528 18.0395 26.2479 18.6752C27.6289 17.7809 27.6259 17.787 28.5901 17.1726C28.2373 16.625 28.0487 16.3725 27.8175 16.1383C26.9871 15.2106 25.8555 14.733 24.0456 14.7695C23.7323 14.8091 23.416 14.8516 23.1027 14.8912C22.1993 15.1193 21.3384 15.5939 20.8335 16.2296C19.3186 17.9482 19.7506 20.9566 21.5939 22.1946C23.4099 23.5574 26.0776 23.8676 26.4182 25.1421C26.7498 26.7026 25.2715 27.2075 23.8023 27.0281C22.7194 26.803 22.1171 26.2524 21.4662 25.2517C20.2677 25.9452 20.2677 25.9452 19.0358 26.6539C19.3278 27.2927 19.635 27.5817 20.1247 28.1353C22.4426 30.4866 28.2433 30.371 29.2837 26.8121C29.3262 26.6904 29.6061 25.8752 29.381 24.6189ZM17.3962 14.9581H14.403C14.403 17.5436 14.3909 20.1109 14.3909 22.6965C14.3909 24.3421 14.4761 25.8509 14.2084 26.3132C13.7704 27.2227 12.6358 27.1102 12.1187 26.9337C11.5924 26.6752 11.3247 26.3071 11.0145 25.787C10.9293 25.6379 10.8654 25.5223 10.8441 25.5132C10.032 26.009 9.22281 26.5079 8.41064 27.0037C8.81524 27.8341 9.4114 28.555 10.1749 29.0235C11.3156 29.7079 12.8487 29.9178 14.4517 29.5497C15.4951 29.2455 16.3954 28.6159 16.8669 27.6577C17.5483 26.4014 17.4023 24.8805 17.3962 23.1984C17.4114 20.4547 17.3962 17.7109 17.3962 14.9581Z" fill="#161616"/>
</g>
<defs>
<clipPath id="clip0_224_187">
<rect width="32" height="32" fill="white" transform="translate(0 0.250977)"/>
</clipPath>
</defs>
</svg>
