<svg width="32" height="33" viewBox="0 0 32 33" fill="none" xmlns="http://www.w3.org/2000/svg">
<g id="jest-2 1">
<path id="Vector" d="M25.3388 14.926C25.3388 13.6511 24.3054 12.6175 23.0306 12.6175C22.9486 12.6175 22.8677 12.6219 22.7879 12.6303L25.9583 3.27832H12.4854L15.6513 12.6221C15.6046 12.6192 15.5578 12.6177 15.511 12.6176C14.2363 12.6176 13.2028 13.651 13.2028 14.9261C13.2028 15.9567 13.8781 16.8292 14.8101 17.1261C14.3179 17.9788 13.6984 18.747 12.9952 19.4106C12.0388 20.3129 10.9444 20.9971 9.76067 21.4186C8.35131 20.6945 7.68581 19.0842 8.28629 17.6722C8.35412 17.5127 8.42336 17.3511 8.48952 17.1902C9.51051 16.9519 10.2714 16.0365 10.2714 14.9426C10.2714 13.6676 9.23796 12.6341 7.96312 12.6341C6.68828 12.6341 5.65489 13.6676 5.65489 14.9426C5.65489 15.7245 6.04379 16.4151 6.63837 16.8327C6.06707 18.1337 5.22725 19.4953 4.96559 21.0733C4.652 22.9644 4.96453 24.9719 6.59997 26.1056C10.4088 28.7458 14.5432 24.4689 18.9024 23.3937C20.4822 23.0041 22.2164 23.0669 23.6083 22.2607C24.6535 21.6552 25.3426 20.6517 25.5381 19.5252C25.7314 18.4123 25.4497 17.3043 24.802 16.4058C25.1495 15.9911 25.3396 15.4671 25.3388 14.926Z" fill="#99425B"/>
<path id="Vector_2" d="M24.9824 19.4281C24.8126 20.4062 24.2086 21.2605 23.3254 21.7722C22.502 22.2491 21.5154 22.3914 20.4706 22.5421C19.911 22.6227 19.3324 22.7063 18.767 22.8457C17.2723 23.2143 15.8244 23.9336 14.4244 24.6292C11.6223 26.0212 9.20253 27.2232 6.92084 25.6415C5.24946 24.483 5.32661 22.3395 5.52132 21.1649C5.7018 20.0766 6.18971 19.0744 6.66146 18.1052C6.74183 17.9405 6.82156 17.7754 6.90063 17.6101C7.13843 17.7052 7.38796 17.7678 7.64248 17.7962C7.16221 19.3814 7.9175 21.1051 9.50268 21.9195L9.7197 22.0311L9.94938 21.9492C11.2026 21.5028 12.3574 20.7866 13.3817 19.82C14.0437 19.1953 14.613 18.5042 15.0809 17.7656C15.2231 17.7871 15.3668 17.7979 15.5106 17.7979C16.9656 17.7979 18.1704 16.71 18.3569 15.305C18.9524 15.2832 19.585 15.2831 20.1839 15.3049C20.3702 16.71 21.5752 17.798 23.0302 17.798C23.6385 17.798 24.2028 17.6073 24.6677 17.2834C24.9904 17.9441 25.1109 18.6876 24.9824 19.4281ZM7.96284 13.1973C8.92479 13.1973 9.70731 13.98 9.70731 14.9421C9.70731 15.2876 9.60592 15.6099 9.43186 15.8813C9.1419 16.3336 8.64898 16.6436 8.08268 16.6823C8.04306 16.6849 8.00308 16.6868 7.96284 16.6868C7.74844 16.6868 7.5431 16.6477 7.35322 16.5767C6.97082 16.4329 6.65059 16.1601 6.44777 15.8054C6.29717 15.5426 6.21804 15.245 6.21827 14.9421C6.21827 13.98 7.00088 13.1973 7.96284 13.1973ZM13.7663 14.9255C13.7663 14.0514 14.4123 13.3256 15.2518 13.2001C15.3363 13.1874 15.4228 13.1808 15.5107 13.1808C16.07 13.1808 16.5679 13.4457 16.8872 13.8563C16.9672 13.9587 17.0355 14.0696 17.0909 14.1871C17.1993 14.4182 17.2554 14.6703 17.2552 14.9255C17.2552 15.065 17.2383 15.2006 17.2073 15.3306C17.0373 16.0424 16.4304 16.5866 15.6867 16.6614C15.6289 16.6672 15.5702 16.6702 15.5107 16.6702C15.1752 16.6705 14.8468 16.5734 14.5653 16.3907C14.085 16.0795 13.7663 15.5391 13.7663 14.9255ZM21.0472 12.8507C20.6676 13.2131 20.3944 13.6725 20.2572 14.1791C19.5997 14.1549 18.9415 14.1549 18.2839 14.1791C18.1363 13.6315 17.8304 13.1483 17.4187 12.7814L19.2239 9.13073L21.0472 12.8507ZM13.2713 3.84169H25.1715L22.3608 12.1326C22.2399 12.1615 22.121 12.1984 22.0049 12.2428L19.2283 6.57795L16.4439 12.209C16.3225 12.1673 16.1984 12.1339 16.0725 12.1089L13.2713 3.84169ZM24.7746 14.9256C24.7746 15.1005 24.7486 15.2694 24.7005 15.4289C24.5865 15.8044 24.3497 16.1307 24.0281 16.3555C23.7358 16.5607 23.3873 16.6706 23.0302 16.6703C22.2247 16.6703 21.5452 16.1213 21.3454 15.3779C21.3058 15.2304 21.2857 15.0783 21.2857 14.9256C21.2857 14.6871 21.3338 14.4597 21.4208 14.2524C21.4657 14.1464 21.521 14.0451 21.5858 13.95C21.8998 13.4865 22.4295 13.1809 23.0302 13.1809C23.0853 13.1809 23.1396 13.1837 23.1934 13.1888C24.0791 13.2713 24.7746 14.0185 24.7746 14.9256ZM25.9022 14.9256C25.9022 13.5232 24.8919 12.3531 23.5613 12.1032L26.7443 2.71387H11.6987L14.8866 12.1222C13.6022 12.4081 12.6388 13.556 12.6388 14.9255C12.6388 15.9538 13.1821 16.8571 13.9965 17.3646C13.6048 17.9483 13.1403 18.4976 12.608 18.9999C11.7638 19.7963 10.8234 20.4004 9.8095 20.7979C8.78824 20.1563 8.35656 18.9463 8.80485 17.8923L8.84 17.8097L8.90589 17.6546C10.0276 17.2633 10.8348 16.1956 10.8348 14.9421C10.8348 13.3582 9.54643 12.0696 7.96284 12.0696C6.37924 12.0696 5.09069 13.3582 5.09069 14.9421C5.09069 15.7415 5.41931 16.4655 5.94808 16.9868C5.84946 17.1957 5.74935 17.404 5.64776 17.6116C5.16423 18.6047 4.61631 19.7303 4.40903 20.9804C3.99747 23.4629 4.66138 25.4475 6.27854 26.5684C7.25982 27.2486 8.25639 27.5161 9.2592 27.5161C11.1474 27.5161 13.0576 26.5672 14.9259 25.6391C16.2714 24.9708 17.6627 24.2796 19.037 23.9406C19.5484 23.8145 20.0746 23.7385 20.6316 23.6582C21.7363 23.4988 22.8786 23.334 23.8905 22.748C25.0634 22.0685 25.8662 20.9287 26.0932 19.6211C26.2881 18.4984 26.0536 17.374 25.4816 16.4204C25.7572 15.9705 25.9028 15.4531 25.9022 14.9255V14.9256Z" fill="white"/>
</g>
</svg>
