<svg width="57" height="35" viewBox="0 0 57 35" fill="none" xmlns="http://www.w3.org/2000/svg">
<g id="nextjs-2 1" clip-path="url(#clip0_224_209)">
<path id="Vector" d="M13.4496 9.17498H24.2003V10.0244H14.435V16.4172H23.618V17.2665H14.435V24.2852H24.3123V25.1345H13.4496V9.17498ZM25.1635 9.17498H26.3057L31.3675 16.1936L36.5412 9.17487L43.5784 0.259766L32.017 16.9313L37.9747 25.1345H36.7876L31.3675 17.6689L25.9249 25.1345H24.7603L30.7627 16.9312L25.1635 9.17498ZM38.4002 10.0244V9.17487H50.6516V10.0243H45.0074V25.1344H44.0219V10.0244H38.4002ZM0 9.17487H1.23185L18.2183 34.442L11.1987 25.1344L1.03023 10.382L0.985477 25.1346H0L0 9.17487ZM50.5523 24.0287C50.3509 24.0287 50.2 23.8737 50.2 23.6732C50.2 23.4729 50.3509 23.3177 50.5523 23.3177C50.7561 23.3177 50.9047 23.4728 50.9047 23.6732C50.9047 23.8736 50.7561 24.0287 50.5523 24.0287ZM51.5207 23.0935H52.048C52.0551 23.3774 52.2637 23.5683 52.5705 23.5683C52.9133 23.5683 53.1074 23.3631 53.1074 22.979V20.5455H53.6443V22.9813C53.6443 23.6732 53.2417 24.0717 52.5753 24.0717C51.9496 24.0717 51.5207 23.6852 51.5207 23.0934V23.0935ZM54.3466 23.0626H54.8788C54.9243 23.3893 55.2455 23.5968 55.7081 23.5968C56.1395 23.5968 56.4559 23.375 56.4559 23.0696C56.4559 22.8073 56.2545 22.6498 55.7968 22.5424L55.3509 22.4351C54.7252 22.2895 54.4401 21.9889 54.4401 21.4832C54.4401 20.8701 54.9434 20.4621 55.6985 20.4621C56.4007 20.4621 56.9137 20.87 56.9449 21.4497H56.4223C56.372 21.1325 56.0939 20.9344 55.6912 20.9344C55.2671 20.9344 54.9843 21.1372 54.9843 21.4473C54.9843 21.693 55.1663 21.8339 55.617 21.9388L55.998 22.0318C56.7075 22.1965 57 22.4828 57 23.0005C57 23.6589 56.4871 24.0717 55.6674 24.0717C54.9004 24.0717 54.3849 23.678 54.3466 23.0624V23.0626Z" fill="#D94766"/>
</g>
<defs>
<clipPath id="clip0_224_209">
<rect width="57" height="34.2" fill="white" transform="translate(0 0.250977)"/>
</clipPath>
</defs>
</svg>
