<svg width="32" height="29" viewBox="0 0 32 29" fill="none" xmlns="http://www.w3.org/2000/svg">
<path d="M32 14.5029C32 12.3831 29.3453 10.3741 25.2752 9.12827C26.2144 4.97988 25.797 1.67943 23.9576 0.622766C23.5336 0.374906 23.0379 0.257499 22.4965 0.257499V1.71204C22.7966 1.71204 23.0379 1.77075 23.2401 1.88163C24.1272 2.3904 24.512 4.32762 24.212 6.81926C24.1402 7.43239 24.0228 8.07813 23.8793 8.73691C22.6009 8.42383 21.2051 8.18249 19.7375 8.02595C18.8569 6.81926 17.9437 5.72346 17.0241 4.76463C19.1504 2.78828 21.1464 1.70552 22.5031 1.70552V0.250977C20.7093 0.250977 18.3612 1.52941 15.987 3.7471C13.6127 1.54246 11.2646 0.277067 9.47085 0.277067V1.73161C10.821 1.73161 12.8235 2.80785 14.9499 4.77116C14.0367 5.72998 13.1235 6.81926 12.256 8.02595C10.7819 8.18249 9.38606 8.42383 8.10762 8.74343C7.9576 8.09117 7.84672 7.45848 7.76845 6.85187C7.46188 4.36023 7.8402 2.42301 8.72075 1.90772C8.91643 1.79032 9.17081 1.73814 9.47085 1.73814V0.28359C8.92295 0.28359 8.42723 0.400997 7.99674 0.648857C6.16388 1.70552 5.75296 4.99945 6.69874 9.13479C2.64166 10.3871 0 12.3896 0 14.5029C0 16.6228 2.65471 18.6317 6.72483 19.8776C5.78557 24.0259 6.20302 27.3264 8.0424 28.3831C8.46637 28.6309 8.96209 28.7483 9.50999 28.7483C11.3037 28.7483 13.6519 27.4699 16.0261 25.2522C18.4003 27.4568 20.7485 28.7222 22.5422 28.7222C23.0901 28.7222 23.5858 28.6048 24.0163 28.357C25.8492 27.3003 26.2601 24.0064 25.3143 19.871C29.3583 18.6252 32 16.6162 32 14.5029ZM23.5075 10.1523C23.2662 10.9937 22.9662 11.8612 22.627 12.7288C22.3596 12.2069 22.0791 11.6851 21.7725 11.1633C21.4725 10.6415 21.1529 10.1328 20.8333 9.63703C21.7595 9.77401 22.6531 9.9436 23.5075 10.1523ZM20.5202 17.0989C20.0114 17.9795 19.4896 18.8144 18.9482 19.5906C17.9764 19.6754 16.9914 19.721 16 19.721C15.0151 19.721 14.0302 19.6754 13.0648 19.5971C12.5234 18.8209 11.9951 17.9925 11.4863 17.1185C10.9906 16.264 10.5406 15.3965 10.1296 14.5225C10.534 13.6484 10.9906 12.7744 11.4798 11.92C11.9886 11.0394 12.5104 10.2045 13.0518 9.42831C14.0236 9.34352 15.0086 9.29786 16 9.29786C16.9849 9.29786 17.9698 9.34352 18.9352 9.42179C19.4766 10.198 20.0049 11.0264 20.5137 11.9004C21.0094 12.7549 21.4594 13.6224 21.8704 14.4964C21.4594 15.3704 21.0094 16.2445 20.5202 17.0989ZM22.627 16.251C22.9792 17.125 23.2793 17.999 23.5271 18.847C22.6726 19.0557 21.7725 19.2318 20.8398 19.3688C21.1594 18.8666 21.479 18.3513 21.779 17.8229C22.0791 17.3011 22.3596 16.7728 22.627 16.251ZM16.013 23.2106C15.4064 22.5844 14.7998 21.8865 14.1998 21.1234C14.7868 21.1495 15.3869 21.169 15.9935 21.169C16.6066 21.169 17.2132 21.156 17.8068 21.1234C17.2197 21.8865 16.6131 22.5844 16.013 23.2106ZM11.1602 19.3688C10.234 19.2318 9.3404 19.0622 8.48594 18.8535C8.72727 18.0121 9.02731 17.1446 9.36649 16.2771C9.63392 16.7989 9.91439 17.3207 10.221 17.8425C10.5275 18.3643 10.8406 18.8731 11.1602 19.3688ZM15.9804 5.79521C16.587 6.42138 17.1936 7.1193 17.7937 7.88245C17.2067 7.85636 16.6066 7.83679 16 7.83679C15.3869 7.83679 14.7803 7.84984 14.1867 7.88245C14.7737 7.1193 15.3804 6.42138 15.9804 5.79521ZM11.1537 9.63703C10.8341 10.1393 10.5145 10.6546 10.2144 11.1829C9.91439 11.7047 9.63392 12.2265 9.36649 12.7483C9.01427 11.8743 8.71423 11.0003 8.46637 10.1523C9.32083 9.95012 10.221 9.77401 11.1537 9.63703ZM5.25071 17.8034C2.9417 16.8184 1.44802 15.527 1.44802 14.5029C1.44802 13.4789 2.9417 12.1809 5.25071 11.2025C5.81166 10.9611 6.42479 10.7459 7.05748 10.5437C7.42927 11.8221 7.91847 13.1527 8.52507 14.516C7.92499 15.8727 7.44232 17.1968 7.07705 18.4687C6.43131 18.2665 5.81818 18.0447 5.25071 17.8034ZM8.75989 27.1242C7.87281 26.6154 7.48798 24.6782 7.78802 22.1866C7.85976 21.5734 7.97717 20.9277 8.12067 20.2689C9.39911 20.582 10.7949 20.8233 12.2625 20.9799C13.1431 22.1866 14.0563 23.2824 14.9759 24.2412C12.8496 26.2175 10.8536 27.3003 9.49694 27.3003C9.20342 27.2938 8.95557 27.2351 8.75989 27.1242ZM24.2316 22.154C24.5381 24.6456 24.1598 26.5828 23.2792 27.0981C23.0836 27.2155 22.8292 27.2677 22.5291 27.2677C21.179 27.2677 19.1765 26.1915 17.0501 24.2281C17.9633 23.2693 18.8765 22.18 19.744 20.9734C21.2181 20.8168 22.6139 20.5755 23.8924 20.2559C24.0424 20.9147 24.1598 21.5473 24.2316 22.154ZM26.7428 17.8034C26.1818 18.0447 25.5687 18.2599 24.936 18.4621C24.5642 17.1837 24.075 15.8531 23.4684 14.4899C24.0685 13.1332 24.5512 11.8091 24.9164 10.5372C25.5622 10.7394 26.1753 10.9611 26.7493 11.2025C29.0583 12.1874 30.552 13.4789 30.552 14.5029C30.5455 15.527 29.0518 16.825 26.7428 17.8034Z" fill="#D94766"/>
<path d="M15.9935 17.4841C17.6398 17.4841 18.9744 16.1496 18.9744 14.5033C18.9744 12.857 17.6398 11.5225 15.9935 11.5225C14.3473 11.5225 13.0127 12.857 13.0127 14.5033C13.0127 16.1496 14.3473 17.4841 15.9935 17.4841Z" fill="#D94766"/>
</svg>
