<svg width="31" height="31" viewBox="0 0 31 31" fill="none" xmlns="http://www.w3.org/2000/svg">
<g id="SVGmix-yj5gWj-restql 1" clip-path="url(#clip0_224_225)">
<g id="Group">
<path id="Vector" d="M29.1176 9.53767C28.9639 8.57065 28.3808 7.7062 27.5172 7.20862L17.2908 1.4936C16.792 1.20634 16.224 1.05469 15.6484 1.05469C15.0727 1.05469 14.5048 1.20634 14.0062 1.49328L3.77983 7.2083C2.76647 7.79241 2.13721 8.87977 2.13721 10.0467V21.8281C2.13721 22.995 2.76647 24.0825 3.77951 24.6663L13.9851 30.3733C14.4841 30.6607 15.0521 30.8124 15.6276 30.8124C16.2031 30.8124 16.771 30.6607 17.2697 30.3735L27.5169 24.6667C28.3808 24.1686 28.964 23.3043 29.1176 22.3371V9.53767ZM16.2666 28.6392C16.0689 28.7531 15.8481 28.8102 15.6274 28.8102C15.4067 28.8102 15.1859 28.7531 14.9882 28.6392L4.78293 22.9326C4.38749 22.7046 4.14389 22.2836 4.14389 21.8281V10.0467C4.14389 9.59115 4.38749 9.17018 4.78293 8.94223L15.009 3.22752C15.2067 3.11347 15.4275 3.05668 15.6482 3.05668C15.869 3.05668 16.0897 3.11347 16.2874 3.22752L26.5135 8.94223C26.9089 9.17002 27.1525 9.591 27.1525 10.0467V21.8281C27.1525 22.2836 26.9089 22.7046 26.5135 22.9326L16.2666 28.6392Z" fill="#83E8C2"/>
<path id="Vector_2" d="M27.2352 10.1349C27.2352 9.68607 26.9894 9.27135 26.5904 9.04679L16.2723 3.2435C16.0728 3.13114 15.8501 3.0752 15.6274 3.0752C15.4046 3.0752 15.1819 3.13114 14.9824 3.2435L4.66432 9.04679C4.26533 9.2712 4.01953 9.68592 4.01953 10.1349V21.7412C4.01953 22.19 4.26533 22.6047 4.66432 22.8292L14.9824 28.6322C15.1819 28.7444 15.4046 28.8007 15.6274 28.8007C15.8501 28.8007 16.0728 28.7444 16.2723 28.6322L26.5904 22.8292C26.9894 22.6047 27.2352 22.19 27.2352 21.7412V10.1349Z" fill="#111D5A"/>
<g id="Group_2">
<path id="Vector_3" d="M14.2607 21.6063L11.8736 20.1813V20.4989C11.8736 20.6433 11.7591 20.7467 11.6341 20.7467C11.5942 20.7467 11.5535 20.7362 11.515 20.7131L11.249 20.5544V23.4044C11.249 23.4871 11.2916 23.5633 11.3609 23.6047L14.037 25.2024C14.0731 25.2239 14.1113 25.2336 14.1488 25.2336C14.2656 25.2336 14.3725 25.137 14.3725 25.0021V21.8066C14.3724 21.7239 14.3299 21.6477 14.2607 21.6063ZM11.4751 14.7559C11.4737 14.7559 11.4723 14.7561 11.4709 14.7561C11.4937 14.7559 11.5168 14.7603 11.5398 14.7642C11.5182 14.7609 11.4965 14.7559 11.4751 14.7559Z" fill="#83E8C2"/>
<path id="Vector_4" d="M14.1762 20.0152C14.1776 20.0152 14.179 20.0149 14.1803 20.0149C14.1578 20.0152 14.1348 20.0105 14.1122 20.0069C14.1337 20.0102 14.1551 20.0152 14.1762 20.0152ZM19.799 14.7562C19.7784 14.7562 19.7575 14.7612 19.7364 14.7643C19.7586 14.7604 19.7808 14.7562 19.8028 14.7565C19.8014 14.7565 19.8003 14.7562 19.799 14.7562ZM24.1436 12.1455C24.1065 12.1455 24.0683 12.1554 24.0321 12.1769L21.3559 13.7744C21.2867 13.8158 21.2439 13.892 21.2439 13.9747V16.8247L21.51 16.666C21.5486 16.6429 21.5894 16.6324 21.6292 16.6326C21.754 16.6326 21.8686 16.7357 21.8686 16.8802V17.1978L24.2557 15.7727C24.3249 15.7314 24.3675 15.6553 24.3675 15.5725V12.377C24.3675 12.2421 24.2604 12.1455 24.1436 12.1455Z" fill="#83E8C2"/>
<path id="Vector_5" d="M17.0963 20.0148C17.1167 20.0148 17.1375 20.0098 17.1581 20.0067C17.1361 20.0103 17.1145 20.0145 17.0928 20.0145C17.0941 20.0145 17.0955 20.0148 17.0963 20.0148Z" fill="#83E8C2"/>
<path id="Vector_6" d="M24.1435 17.3661C24.1063 17.3661 24.0681 17.376 24.0319 17.3974L21.8685 18.6889V19.2919C21.8685 19.3803 21.8229 19.4619 21.7489 19.5061L19.7285 20.7124C19.6898 20.7353 19.6491 20.7458 19.6092 20.7458C19.4844 20.7458 19.3699 20.6426 19.3699 20.498V20.1806L16.983 21.6054C16.9138 21.6468 16.871 21.723 16.871 21.8057V25.0012C16.871 25.1362 16.9781 25.2327 17.0949 25.2327C17.1322 25.2327 17.1704 25.2228 17.2065 25.2015L24.2557 20.9932C24.3249 20.9519 24.3675 20.8755 24.3675 20.793V17.5975C24.3674 17.4629 24.2603 17.3661 24.1435 17.3661ZM12.8334 6.92789C12.6844 7.01697 12.6844 7.23927 12.8334 7.32834L14.9968 8.61974L15.502 8.31808C15.539 8.29593 15.5803 8.2851 15.6215 8.2851C15.6626 8.2851 15.7041 8.29593 15.7409 8.31808L17.7614 9.52438C17.9209 9.61952 17.9209 9.85743 17.7614 9.95272L17.4953 10.1114L19.8825 11.5365C19.9171 11.5571 19.9557 11.5673 19.9943 11.5673C20.033 11.5673 20.0716 11.5571 20.1062 11.5365L22.7825 9.9387C22.9315 9.84978 22.9315 9.62732 22.7825 9.5384L15.7333 5.3299C15.6987 5.30919 15.6601 5.29883 15.6215 5.29883C15.5828 5.29883 15.5442 5.30919 15.5096 5.3299L12.8334 6.92789ZM8.4607 9.53856C8.31152 9.62748 8.31152 9.84994 8.4607 9.93886L11.137 11.5367C11.1717 11.5572 11.2102 11.5674 11.2489 11.5674C11.2876 11.5674 11.3261 11.5572 11.3608 11.5367L13.7476 10.1116L13.4815 9.95288C13.3221 9.85759 13.3221 9.61967 13.4815 9.52454L13.7476 9.36567L11.3606 7.94074C11.3259 7.92018 11.2874 7.90982 11.2487 7.90982C11.2102 7.90982 11.1717 7.92018 11.137 7.94074L8.4607 9.53856ZM9.99934 22.3905V19.8076L9.49416 19.5058C9.42019 19.4618 9.37473 19.38 9.37473 19.2916V16.8791C9.37473 16.7348 9.48923 16.6314 9.61422 16.6315C9.65413 16.6315 9.69482 16.6419 9.73334 16.665L9.99949 16.8238V13.9737C9.99949 13.891 9.95696 13.8148 9.88761 13.7734L7.21132 12.176C7.17541 12.1545 7.13719 12.1446 7.09975 12.1446C6.98293 12.1446 6.87598 12.2412 6.87598 12.3762V20.7927C6.87598 20.8752 6.91851 20.9516 6.98786 20.9928L9.66399 22.5905C9.70006 22.612 9.73828 22.6217 9.77557 22.6217C9.89223 22.6219 9.99934 22.5253 9.99934 22.3905Z" fill="#83E8C2"/>
</g>
<path id="Vector_7" d="M16.9478 16.6338C16.9614 16.6202 16.9772 16.6081 16.9946 16.5981L19.6824 15.0652C19.7008 15.0546 19.7198 15.0471 19.7389 15.0424C19.7457 15.0406 19.7525 15.0409 19.7592 15.0396C19.7717 15.0377 19.7842 15.0352 19.7966 15.0354C19.7997 15.0355 19.8025 15.0361 19.8058 15.0363C19.8198 15.037 19.8341 15.0392 19.848 15.0424C19.8533 15.0438 19.8584 15.0453 19.8635 15.047C19.8754 15.051 19.8869 15.0557 19.898 15.0615C19.9023 15.0637 19.9068 15.0656 19.911 15.0681C19.9256 15.0766 19.9395 15.0867 19.9517 15.0985C19.9528 15.0996 19.9537 15.101 19.955 15.1022C19.966 15.113 19.9756 15.1251 19.9841 15.1381C19.9869 15.1425 19.9892 15.1471 19.9918 15.1519C19.998 15.1629 20.0031 15.1745 20.0071 15.1869C20.0088 15.1921 20.0107 15.197 20.0121 15.202C20.0164 15.2196 20.0197 15.2378 20.0197 15.2572V17.7356L19.5123 18.025C19.462 18.0536 19.4262 18.0994 19.4073 18.1519C19.3984 18.177 19.3922 18.203 19.3922 18.2305V18.8092L17.2193 20.0483C17.2188 20.0486 17.2182 20.0486 17.2178 20.0489C17.1998 20.059 17.1814 20.0665 17.163 20.0712C17.156 20.0731 17.149 20.0729 17.1421 20.074C17.1297 20.0758 17.1175 20.0783 17.1052 20.0783C17.1021 20.0781 17.0992 20.0775 17.0961 20.0773C17.0819 20.0766 17.0678 20.0744 17.0538 20.0711C17.0484 20.0698 17.0435 20.0683 17.0384 20.0665C17.0264 20.0627 17.0148 20.0578 17.0038 20.0521C16.9994 20.0498 16.995 20.048 16.9908 20.0454C16.9763 20.0368 16.9624 20.0269 16.9501 20.0151C16.9489 20.014 16.948 20.0124 16.9466 20.011C16.9357 20.0003 16.9265 19.9884 16.9179 19.9755C16.915 19.9711 16.9127 19.9663 16.9101 19.9618C16.904 19.9506 16.8989 19.939 16.8949 19.9267C16.893 19.9214 16.8913 19.9165 16.8898 19.9113C16.8854 19.8939 16.8823 19.8758 16.8823 19.8566L16.8822 16.7902C16.8822 16.7309 16.9063 16.6749 16.9478 16.6338ZM14.2601 16.5971C14.295 16.6169 14.3231 16.6452 14.3425 16.6784C14.3618 16.7116 14.3725 16.7498 14.3725 16.7896V19.8547C14.3725 19.8741 14.3694 19.8923 14.3649 19.9098C14.3635 19.9153 14.3618 19.9202 14.36 19.9252C14.3558 19.9374 14.3508 19.9492 14.3447 19.9602C14.342 19.9648 14.3397 19.9695 14.3369 19.974C14.3284 19.987 14.3187 19.9991 14.3078 20.0099C14.3067 20.011 14.3058 20.0125 14.3046 20.0137C14.2923 20.0254 14.2784 20.0353 14.2637 20.0442C14.2597 20.0466 14.2552 20.0484 14.251 20.0507C14.2397 20.0564 14.2281 20.0614 14.2162 20.0653C14.2109 20.0668 14.2061 20.0685 14.2009 20.0697C14.1869 20.0731 14.1725 20.0754 14.1578 20.076C14.155 20.0761 14.1523 20.0769 14.1493 20.0769C14.1366 20.077 14.1236 20.0746 14.1109 20.0724C14.1043 20.0714 14.0979 20.0717 14.0916 20.0698C14.0724 20.065 14.0534 20.0575 14.0349 20.0471L11.8625 18.808V18.2294C11.8625 18.1871 11.8511 18.1462 11.8303 18.1109C11.8098 18.0754 11.7796 18.0453 11.7424 18.0241L11.2354 17.7348V15.2569C11.2354 15.2375 11.2384 15.2193 11.2429 15.2017C11.2443 15.1964 11.246 15.1915 11.2479 15.1864C11.2521 15.1742 11.257 15.1626 11.2632 15.1514C11.2658 15.1468 11.2682 15.1419 11.2711 15.1375C11.2795 15.1247 11.2892 15.1126 11.3001 15.1017C11.3011 15.1007 11.3021 15.0991 11.3033 15.0979C11.3155 15.0863 11.3293 15.0763 11.344 15.0675C11.3482 15.065 11.3527 15.063 11.357 15.0609C11.3683 15.0551 11.3799 15.05 11.3917 15.0464C11.3969 15.0448 11.4017 15.0432 11.407 15.0418C11.4209 15.0386 11.4353 15.0363 11.45 15.0355C11.453 15.0355 11.4556 15.0348 11.4586 15.0348C11.4714 15.0346 11.4844 15.0369 11.4974 15.0392C11.5036 15.0403 11.5099 15.04 11.5163 15.0418C11.5353 15.0465 11.5545 15.054 11.5729 15.0646L14.2601 16.5971ZM15.7397 14.4504C15.7051 14.4703 15.6664 14.48 15.6275 14.48C15.5887 14.48 15.55 14.4703 15.5151 14.4504L12.8272 12.9174C12.7898 12.896 12.7617 12.8667 12.7429 12.8333C12.7055 12.7667 12.7055 12.6839 12.7429 12.6173C12.7617 12.5838 12.7898 12.5546 12.8272 12.5332L15 11.2941L15.5072 11.5834C15.5817 11.6256 15.6732 11.6256 15.7473 11.5834L16.2547 11.2939L18.4276 12.5332C18.5774 12.6185 18.5774 12.8319 18.4276 12.9174L15.7397 14.4504Z" fill="#DE5941"/>
</g>
</g>
<defs>
<clipPath id="clip0_224_225">
<rect width="30.1176" height="30.1176" fill="white" transform="translate(0.254883 0.878906)"/>
</clipPath>
</defs>
</svg>
