<svg width="32" height="33" viewBox="0 0 32 33" fill="none" xmlns="http://www.w3.org/2000/svg">
<g id="typescript 1" clip-path="url(#clip0_224_179)">
<path id="Vector" d="M0 16.251V0.250977H32V32.251H0" fill="#D94766"/>
<path id="Vector_2" d="M7.01611 16.3064V17.6104H11.1761V29.4504H14.1281V17.6104H18.2881V16.3304C18.2881 15.6104 18.2881 15.0264 18.2561 15.0104C18.2561 14.9864 15.7201 14.9784 12.6401 14.9784L7.04011 15.0024V16.3144L7.01611 16.3064ZM25.7121 14.9704C26.5281 15.1624 27.1521 15.5304 27.7121 16.1144C28.0081 16.4344 28.4481 16.9944 28.4801 17.1384C28.4801 17.1864 27.0961 18.1224 26.2561 18.6424C26.2241 18.6664 26.0961 18.5304 25.9681 18.3224C25.5521 17.7304 25.1281 17.4744 24.4641 17.4264C23.5041 17.3624 22.8641 17.8664 22.8641 18.7064C22.8641 18.9624 22.9121 19.1064 23.0081 19.3144C23.2241 19.7544 23.6241 20.0184 24.8641 20.5624C27.1521 21.5464 28.1441 22.1944 28.7441 23.1224C29.4241 24.1624 29.5761 25.7944 29.1201 27.0184C28.6081 28.3544 27.3601 29.2584 25.5761 29.5544C25.0161 29.6504 23.7361 29.6344 23.1361 29.5304C21.8561 29.2904 20.6321 28.6504 19.8801 27.8264C19.5841 27.5064 19.0161 26.6504 19.0481 26.5944L19.3521 26.4024L20.5521 25.7064L21.4561 25.1784L21.6641 25.4584C21.9281 25.8744 22.5201 26.4344 22.8641 26.6264C23.9041 27.1624 25.2961 27.0904 25.9841 26.4664C26.2801 26.1944 26.4081 25.9064 26.4081 25.5064C26.4081 25.1384 26.3521 24.9704 26.1681 24.6904C25.9121 24.3384 25.4001 24.0504 23.9601 23.4104C22.3041 22.7064 21.6001 22.2584 20.9441 21.5704C20.5681 21.1544 20.2241 20.5064 20.0641 19.9704C19.9441 19.5064 19.9041 18.3704 20.0161 17.9144C20.3601 16.3144 21.5681 15.1944 23.2961 14.8744C23.8561 14.7624 25.1761 14.8104 25.7281 14.9544L25.7121 14.9704Z" fill="#161616"/>
</g>
<defs>
<clipPath id="clip0_224_179">
<rect width="32" height="32" fill="white" transform="translate(0 0.250977)"/>
</clipPath>
</defs>
</svg>
