<svg width="24" height="24" viewBox="0 0 24 24" fill="none" xmlns="http://www.w3.org/2000/svg">
<path d="M8.205 4.82963C8.30935 4.72514 8.43327 4.64224 8.56969 4.58567C8.7061 4.52911 8.85233 4.5 9 4.5C9.14768 4.5 9.2939 4.52911 9.43032 4.58567C9.56673 4.64224 9.69065 4.72514 9.795 4.82963L16.17 11.2046C16.2745 11.309 16.3574 11.4329 16.414 11.5693C16.4705 11.7057 16.4996 11.852 16.4996 11.9996C16.4996 12.1473 16.4705 12.2935 16.414 12.4299C16.3574 12.5664 16.2745 12.6903 16.17 12.7946L9.795 19.1696C9.6906 19.274 9.56666 19.3568 9.43025 19.4133C9.29385 19.4698 9.14765 19.4989 9 19.4989C8.85236 19.4989 8.70616 19.4698 8.56975 19.4133C8.43335 19.3568 8.3094 19.274 8.205 19.1696C8.1006 19.0652 8.01779 18.9413 7.96128 18.8049C7.90478 18.6685 7.8757 18.5223 7.8757 18.3746C7.8757 18.227 7.90478 18.0808 7.96129 17.9444C8.01779 17.808 8.1006 17.684 8.205 17.5796L13.7835 11.9996L8.205 6.41963C8.10051 6.31528 8.01761 6.19136 7.96105 6.05495C7.90448 5.91853 7.87537 5.77231 7.87537 5.62463C7.87537 5.47696 7.90448 5.33073 7.96105 5.19432C8.01761 5.0579 8.10051 4.93398 8.205 4.82963Z" fill="white"/>
</svg>
