<svg width="24" height="24" viewBox="0 0 24 24" fill="none" xmlns="http://www.w3.org/2000/svg">
<path d="M10.08 10.862C10.13 10.532 10.24 10.242 10.38 10.002C10.68 9.44195 11.19 9.15195 11.88 9.14195C12.33 9.14195 12.74 9.34195 13.03 9.63195C13.31 9.94195 13.5 10.372 13.5 10.802H15.3C15.28 10.332 15.19 9.90195 15 9.50195C14.85 9.12195 14.62 8.78195 14.32 8.50195C12.87 7.16195 10.18 7.35195 8.95 8.87195C7.66 10.542 7.63 13.462 8.94 15.132C10.15 16.622 12.8 16.832 14.24 15.502C14.55 15.252 14.8 14.942 15 14.582C15.16 14.222 15.27 13.842 15.28 13.432H13.5C13.5 13.642 13.43 13.832 13.34 14.002C13.25 14.192 13.13 14.342 13 14.472C12.67 14.732 12.28 14.872 11.86 14.872C11.5 14.862 11.2 14.792 10.97 14.642C10.7108 14.4962 10.5042 14.2722 10.38 14.002C9.88 13.102 9.96 11.852 10.08 10.862ZM12 2.00195C6.5 2.00195 2 6.50195 2 12.002C2.53 25.272 21.5 25.262 22 12.002C22 6.50195 17.5 2.00195 12 2.00195ZM12 20.002C7.59 20.002 4 16.412 4 12.002C4.44 1.39195 19.56 1.39195 20 12.002C20 16.412 16.41 20.002 12 20.002Z" fill="#EBEBEB"/>
</svg>
