<svg width="12" height="12" viewBox="0 0 12 12" fill="none" xmlns="http://www.w3.org/2000/svg">
<rect width="12" height="12" rx="6" fill="#405674"/>
<path d="M9.97083 7.63789C9.90417 7.52539 9.71667 7.35039 9.25 7.43373C8.99167 7.47956 8.72917 7.50039 8.46667 7.48789C7.49583 7.44623 6.61667 7.00039 6.00417 6.31289C5.4625 5.70873 5.12917 4.92123 5.125 4.07123C5.125 3.59623 5.21667 3.13789 5.40417 2.70456C5.5875 2.28373 5.45833 2.06289 5.36667 1.97123C5.27083 1.87539 5.04583 1.74206 4.60417 1.92539C2.9 2.64206 1.84583 4.35039 1.97083 6.17956C2.09583 7.90039 3.30417 9.37123 4.90417 9.92539C5.2875 10.0587 5.69167 10.1379 6.10833 10.1546C6.175 10.1587 6.24167 10.1629 6.30833 10.1629C7.70417 10.1629 9.0125 9.50456 9.8375 8.38373C10.1167 7.99623 10.0417 7.75039 9.97083 7.63789Z" fill="white"/>
</svg>
