<svg width="57" height="12" viewBox="0 0 57 12" fill="none" xmlns="http://www.w3.org/2000/svg">
<path id="Vector" d="M13.4699 9.07709C12.5808 8.02261 11.1707 5.76101 10.4943 4.66038C9.81794 3.55976 7.17608 6.02504 7.17608 6.02504C5.15703 7.5283 3.15297 9.54623 2.16272 10.5999C1.84408 10.9715 1.28686 11.0117 0.919228 10.6897C0.551594 10.3677 0.511814 9.80453 0.830457 9.43298C1.92293 8.03693 4.31883 5.14742 6.62969 3.34709C7.99415 2.28411 9.38269 1.6559 10.4943 1.61181C11.0948 1.59022 11.692 1.83195 12.272 2.31398C13.1439 3.03845 14.0319 4.62223 15.0201 6.09388C15.37 6.61499 15.7287 7.12412 16.1382 7.52779C16.4509 7.83622 16.773 8.10373 17.1719 8.17114C18.0928 8.33001 18.8484 7.87366 19.5668 7.25077C20.8477 6.14022 21.9983 4.52904 23.2222 3.27241C24.3813 2.08207 25.6196 1.19034 27.0176 0.983394C28.3371 0.762636 29.2779 1.23812 30.0563 2.09711C30.7591 2.87253 31.291 4.09529 31.9196 5.31816C32.4887 6.42563 33.1344 7.58753 34.5169 7.87468C35.6135 8.11948 36.5188 7.77607 37.3473 7.21558C38.818 6.22083 40.0774 4.61497 41.431 3.33236C42.653 2.17445 43.953 1.26031 45.4144 0.939406C46.1129 0.785959 46.9565 1.02462 47.8142 1.8164C48.6641 2.60093 49.7184 4.14624 51.3422 4.89618C52.195 5.29003 53.2261 5.41739 54.4963 4.99797C55.2203 4.75409 56.0039 5.15008 56.2452 5.88162C56.4866 6.61325 56.0947 7.40524 55.3708 7.64912C53.2918 8.36336 51.5967 8.12153 50.1875 7.49188C48.5044 6.73989 47.2539 5.35703 46.2812 4.36515C45.1817 3.2436 43.6588 5.2435 42.7886 6.14381C41.5641 7.41056 40.3541 8.78769 38.9932 9.70489C37.5011 10.7105 35.8426 11.2178 33.8736 10.7606C32.8662 10.5135 32.0587 10.0482 31.4005 9.42869C30.0402 8.14823 29.3736 6.16641 28.6077 4.66038C28.2975 4.05049 28.0722 3.44304 27.4063 3.53664C26.1168 3.75075 25.1526 4.98815 24.1399 6.23751C22.8841 7.78691 21.633 9.43493 20.1792 10.3395C19.1419 10.9849 18.0042 11.283 16.7252 11.1059C15.4816 10.9279 14.3883 10.1664 13.4699 9.07709Z" fill="#D94766"/>
</svg>
