<svg width="12" height="12" viewBox="0 0 12 12" fill="none" xmlns="http://www.w3.org/2000/svg">
<rect width="12" height="12" rx="6" fill="#DDDDDD"/>
<path d="M6.00001 8.91634C7.61084 8.91634 8.91668 7.61051 8.91668 5.99967C8.91668 4.38884 7.61084 3.08301 6.00001 3.08301C4.38918 3.08301 3.08334 4.38884 3.08334 5.99967C3.08334 7.61051 4.38918 8.91634 6.00001 8.91634Z" fill="#FFBD00"/>
<path d="M5.99999 10.567C5.77082 10.567 5.58332 10.3962 5.58332 10.167V10.1337C5.58332 9.90449 5.77082 9.71699 5.99999 9.71699C6.22916 9.71699 6.41666 9.90449 6.41666 10.1337C6.41666 10.3628 6.22916 10.567 5.99999 10.567ZM8.97499 9.39199C8.86666 9.39199 8.76249 9.35033 8.67916 9.27116L8.62499 9.21699C8.46249 9.05449 8.46249 8.79199 8.62499 8.62949C8.78749 8.46699 9.04999 8.46699 9.21249 8.62949L9.26666 8.68366C9.42916 8.84616 9.42916 9.10866 9.26666 9.27116C9.18749 9.35033 9.08332 9.39199 8.97499 9.39199ZM3.02499 9.39199C2.91666 9.39199 2.81249 9.35033 2.72916 9.27116C2.56666 9.10866 2.56666 8.84616 2.72916 8.68366L2.78332 8.62949C2.94582 8.46699 3.20832 8.46699 3.37082 8.62949C3.53332 8.79199 3.53332 9.05449 3.37082 9.21699L3.31666 9.27116C3.23749 9.35033 3.12916 9.39199 3.02499 9.39199ZM10.1667 6.41699H10.1333C9.90416 6.41699 9.71666 6.22949 9.71666 6.00033C9.71666 5.77116 9.90416 5.58366 10.1333 5.58366C10.3625 5.58366 10.5667 5.77116 10.5667 6.00033C10.5667 6.22949 10.3958 6.41699 10.1667 6.41699ZM1.86666 6.41699H1.83332C1.60416 6.41699 1.41666 6.22949 1.41666 6.00033C1.41666 5.77116 1.60416 5.58366 1.83332 5.58366C2.06249 5.58366 2.26666 5.77116 2.26666 6.00033C2.26666 6.22949 2.09582 6.41699 1.86666 6.41699ZM8.92082 3.49616C8.81249 3.49616 8.70832 3.45449 8.62499 3.37533C8.46249 3.21283 8.46249 2.95033 8.62499 2.78783L8.67916 2.73366C8.84166 2.57116 9.10416 2.57116 9.26666 2.73366C9.42916 2.89616 9.42916 3.15866 9.26666 3.32116L9.21249 3.37533C9.13332 3.45449 9.02916 3.49616 8.92082 3.49616ZM3.07916 3.49616C2.97082 3.49616 2.86666 3.45449 2.78332 3.37533L2.72916 3.31699C2.56666 3.15449 2.56666 2.89199 2.72916 2.72949C2.89166 2.56699 3.15416 2.56699 3.31666 2.72949L3.37082 2.78366C3.53332 2.94616 3.53332 3.20866 3.37082 3.37116C3.29166 3.45449 3.18332 3.49616 3.07916 3.49616ZM5.99999 2.26699C5.77082 2.26699 5.58332 2.09616 5.58332 1.86699V1.83366C5.58332 1.60449 5.77082 1.41699 5.99999 1.41699C6.22916 1.41699 6.41666 1.60449 6.41666 1.83366C6.41666 2.06283 6.22916 2.26699 5.99999 2.26699Z" fill="#FFBD00"/>
</svg>
