<svg width="20" height="21" viewBox="0 0 20 21" fill="none" xmlns="http://www.w3.org/2000/svg">
<path d="M10 0.501953C8.68678 0.501953 7.38642 0.760611 6.17317 1.26316C4.95991 1.7657 3.85752 2.5023 2.92893 3.43089C1.05357 5.30625 0 7.84979 0 10.502C0 14.922 2.87 18.672 6.84 20.002C7.34 20.082 7.5 19.772 7.5 19.502V17.812C4.73 18.412 4.14 16.472 4.14 16.472C3.68 15.312 3.03 15.002 3.03 15.002C2.12 14.382 3.1 14.402 3.1 14.402C4.1 14.472 4.63 15.432 4.63 15.432C5.5 16.952 6.97 16.502 7.54 16.262C7.63 15.612 7.89 15.172 8.17 14.922C5.95 14.672 3.62 13.812 3.62 10.002C3.62 8.89195 4 8.00195 4.65 7.29195C4.55 7.04195 4.2 6.00195 4.75 4.65195C4.75 4.65195 5.59 4.38195 7.5 5.67195C8.29 5.45195 9.15 5.34195 10 5.34195C10.85 5.34195 11.71 5.45195 12.5 5.67195C14.41 4.38195 15.25 4.65195 15.25 4.65195C15.8 6.00195 15.45 7.04195 15.35 7.29195C16 8.00195 16.38 8.89195 16.38 10.002C16.38 13.822 14.04 14.662 11.81 14.912C12.17 15.222 12.5 15.832 12.5 16.762V19.502C12.5 19.772 12.66 20.092 13.17 20.002C17.14 18.662 20 14.922 20 10.502C20 9.18873 19.7413 7.88837 19.2388 6.67512C18.7362 5.46186 17.9997 4.35947 17.0711 3.43089C16.1425 2.5023 15.0401 1.7657 13.8268 1.26316C12.6136 0.760611 11.3132 0.501953 10 0.501953Z" fill="white"/>
</svg>
