<svg width="24" height="25" viewBox="0 0 24 25" fill="none" xmlns="http://www.w3.org/2000/svg">
<path d="M7.8 2.50195H16.2C19.4 2.50195 22 5.10195 22 8.30195V16.702C22 18.2402 21.3889 19.7155 20.3012 20.8032C19.2135 21.8909 17.7383 22.502 16.2 22.502H7.8C4.6 22.502 2 19.902 2 16.702V8.30195C2 6.7637 2.61107 5.28844 3.69878 4.20073C4.78649 3.11302 6.26174 2.50195 7.8 2.50195ZM7.6 4.50195C6.64522 4.50195 5.72955 4.88124 5.05442 5.55637C4.37928 6.2315 4 7.14717 4 8.10195V16.902C4 18.892 5.61 20.502 7.6 20.502H16.4C17.3548 20.502 18.2705 20.1227 18.9456 19.4475C19.6207 18.7724 20 17.8567 20 16.902V8.10195C20 6.11195 18.39 4.50195 16.4 4.50195H7.6ZM17.25 6.00195C17.5815 6.00195 17.8995 6.13365 18.1339 6.36807C18.3683 6.60249 18.5 6.92043 18.5 7.25195C18.5 7.58347 18.3683 7.90142 18.1339 8.13584C17.8995 8.37026 17.5815 8.50195 17.25 8.50195C16.9185 8.50195 16.6005 8.37026 16.3661 8.13584C16.1317 7.90142 16 7.58347 16 7.25195C16 6.92043 16.1317 6.60249 16.3661 6.36807C16.6005 6.13365 16.9185 6.00195 17.25 6.00195ZM12 7.50195C13.3261 7.50195 14.5979 8.02874 15.5355 8.96642C16.4732 9.9041 17 11.1759 17 12.502C17 13.828 16.4732 15.0998 15.5355 16.0375C14.5979 16.9752 13.3261 17.502 12 17.502C10.6739 17.502 9.40215 16.9752 8.46447 16.0375C7.52678 15.0998 7 13.828 7 12.502C7 11.1759 7.52678 9.9041 8.46447 8.96642C9.40215 8.02874 10.6739 7.50195 12 7.50195ZM12 9.50195C11.2044 9.50195 10.4413 9.81802 9.87868 10.3806C9.31607 10.9432 9 11.7063 9 12.502C9 13.2976 9.31607 14.0607 9.87868 14.6233C10.4413 15.1859 11.2044 15.502 12 15.502C12.7956 15.502 13.5587 15.1859 14.1213 14.6233C14.6839 14.0607 15 13.2976 15 12.502C15 11.7063 14.6839 10.9432 14.1213 10.3806C13.5587 9.81802 12.7956 9.50195 12 9.50195Z" fill="white"/>
</svg>
