<svg width="24" height="25" viewBox="0 0 24 25" fill="none" xmlns="http://www.w3.org/2000/svg">
<path d="M19 3.50195C19.5304 3.50195 20.0391 3.71267 20.4142 4.08774C20.7893 4.46281 21 4.97152 21 5.50195V19.502C21 20.0324 20.7893 20.5411 20.4142 20.9162C20.0391 21.2912 19.5304 21.502 19 21.502H5C4.46957 21.502 3.96086 21.2912 3.58579 20.9162C3.21071 20.5411 3 20.0324 3 19.502V5.50195C3 4.97152 3.21071 4.46281 3.58579 4.08774C3.96086 3.71267 4.46957 3.50195 5 3.50195H19ZM18.5 19.002V13.702C18.5 12.8373 18.1565 12.0082 17.5452 11.3968C16.9338 10.7854 16.1046 10.442 15.24 10.442C14.39 10.442 13.4 10.962 12.92 11.742V10.632H10.13V19.002H12.92V14.072C12.92 13.302 13.54 12.672 14.31 12.672C14.6813 12.672 15.0374 12.8195 15.2999 13.082C15.5625 13.3446 15.71 13.7006 15.71 14.072V19.002H18.5ZM6.88 9.06195C7.32556 9.06195 7.75288 8.88495 8.06794 8.56989C8.383 8.25483 8.56 7.82752 8.56 7.38195C8.56 6.45195 7.81 5.69195 6.88 5.69195C6.43178 5.69195 6.00193 5.87001 5.68499 6.18694C5.36805 6.50388 5.19 6.93374 5.19 7.38195C5.19 8.31195 5.95 9.06195 6.88 9.06195ZM8.27 19.002V10.632H5.5V19.002H8.27Z" fill="white"/>
</svg>
